<svg width="28.37" height="28.43" viewBox="0 0 28.37 28.43" xmlns="http://www.w3.org/2000/svg" xmlns:xlink="http://www.w3.org/1999/xlink" overflow="hidden"><defs></defs><g id="XMLID_1_"><path d="M15.69 0.07C15.54 0.06 15.41 0.12 15.3 0.22 15.2 0.32 15.14 0.46 15.14 0.6L15.07 11.27C15.07 11.49 15.2 11.69 15.4 11.77 15.47 11.8 15.54 11.81 15.6 11.81 15.74 11.81 15.88 11.75 15.99 11.65L23.53 3.89C23.63 3.79 23.69 3.65 23.68 3.5 23.68 3.35 23.61 3.22 23.51 3.12 21.51 1.27 18.59 0.13 15.69 0.07ZM16.16 9.94 16.22 1.18C18.48 1.34 20.71 2.2 22.37 3.55L16.16 9.94Z" id="XMLID_15_" fill="#272525"/><path d="M26.5 20.25 14.48 13.89 14.48 0.55C14.48 0.26 14.24 0.02 13.95 0.01L13.85 0.01C13.79 0.01 13.73 0.01 13.67 0.01 6.01 0 0 6.24 0 14.21 0 22.05 6.38 28.42 14.21 28.42 19.52 28.42 24.79 25.27 26.74 20.94 26.86 20.69 26.75 20.38 26.5 20.25ZM14.21 27.35C6.97 27.35 1.07 21.46 1.07 14.21 1.07 6.94 6.46 1.22 13.4 1.08L13.4 14.21C13.4 14.41 13.51 14.59 13.69 14.69L25.53 20.96C23.6 24.69 18.93 27.35 14.21 27.35Z" id="XMLID_12_" fill="#272525"/><path d="M26.32 6.62C26.02 6.15 25.7 5.71 25.36 5.3 25.31 5.23 25.23 5.19 25.15 5.18 25.15 5.1 25.12 5.02 25.06 4.95 24.89 4.76 24.73 4.59 24.58 4.44 24.51 4.37 24.43 4.33 24.32 4.33 24.22 4.33 24.13 4.37 24.06 4.44L23 5.53C22.96 5.57 22.93 5.62 22.91 5.67L22.79 6.04C22.66 5.99 22.51 6.02 22.41 6.12L20.44 8.14C20.4 8.18 20.37 8.23 20.35 8.28L20.23 8.65C20.1 8.6 19.95 8.63 19.85 8.73L17.88 10.75C17.84 10.79 17.81 10.84 17.8 10.89L17.68 11.27C17.55 11.22 17.4 11.25 17.3 11.35L15.72 12.97C15.64 13.05 15.61 13.16 15.62 13.28 15.64 13.39 15.71 13.49 15.81 13.54L16.73 14.03C16.78 14.06 16.84 14.07 16.9 14.07 16.91 14.07 16.92 14.07 16.93 14.06 16.96 14.12 17.01 14.17 17.07 14.2L18.21 14.81C18.26 14.84 18.32 14.85 18.38 14.85 18.39 14.85 18.4 14.85 18.41 14.84 18.44 14.9 18.49 14.95 18.55 14.98L19.69 15.59C19.74 15.62 19.8 15.63 19.86 15.63 19.87 15.63 19.88 15.63 19.89 15.62 19.92 15.68 19.97 15.73 20.03 15.76L21.17 16.37C21.22 16.4 21.28 16.41 21.34 16.41 21.35 16.41 21.36 16.41 21.37 16.4 21.4 16.46 21.45 16.51 21.51 16.54L22.65 17.15C22.7 17.18 22.76 17.19 22.82 17.19 22.83 17.19 22.84 17.19 22.85 17.18 22.88 17.24 22.93 17.29 22.99 17.32L24.13 17.93C24.18 17.96 24.24 17.97 24.3 17.97 24.31 17.97 24.32 17.97 24.33 17.96 24.36 18.02 24.41 18.07 24.47 18.1L25.61 18.71C25.66 18.74 25.72 18.75 25.78 18.75 25.79 18.75 25.8 18.75 25.81 18.74 25.84 18.8 25.89 18.85 25.95 18.88L26.62 19.24C26.67 19.27 26.73 19.28 26.79 19.28 26.83 19.28 26.86 19.27 26.9 19.26 26.99 19.23 27.07 19.17 27.11 19.08 27.93 17.49 28.35 15.54 28.35 13.3 28.35 13.09 28.34 12.87 28.33 12.64 28.32 12.48 28.21 12.36 28.06 12.32L28.22 11.82C28.24 11.77 28.24 11.71 28.23 11.66 28.11 10.83 27.91 10 27.63 9.2 27.59 9.09 27.5 9 27.38 8.97L27.44 9C27.46 8.92 27.46 8.83 27.43 8.76 27.19 8.18 26.91 7.61 26.59 7.06 26.54 6.98 26.46 6.92 26.37 6.9 26.39 6.8 26.37 6.7 26.32 6.62ZM16.71 13.23 16.6 13.17 16.79 12.97 16.71 13.23ZM18.19 14.02 17.69 13.75 18.48 11.22 19.34 10.34 18.19 14.02ZM19.67 14.82 19.17 14.55 21.04 8.61 21.9 7.73 19.67 14.82ZM21.15 15.61 20.65 15.34 23.59 5.98 24.33 5.22C24.35 5.24 24.37 5.26 24.39 5.28L21.15 15.61ZM22.63 16.4 22.13 16.13 25.22 6.29C25.36 6.48 25.49 6.67 25.62 6.87L22.63 16.4ZM26.66 18.56 26.58 18.52 27.52 15.53C27.36 16.64 27.07 17.66 26.66 18.56ZM27.53 11.82 25.59 17.99 25.09 17.72 27.3 10.68C27.4 11.06 27.48 11.44 27.53 11.82ZM26.37 8.16C26.49 8.41 26.61 8.66 26.72 8.91L24.12 17.2 23.62 16.93 26.37 8.16Z" id="XMLID_2_" fill="#272525"/></g></svg>