<svg width="41.65" height="41.65" viewBox="0 0 41.65 41.65" xmlns="http://www.w3.org/2000/svg" xmlns:xlink="http://www.w3.org/1999/xlink" overflow="hidden"><defs></defs><path d="M0 4.91C0 3.69 0.45 2.5 1.28 1.59 2.21 0.58 3.52 0 4.89 0L11.46 0C13.95 0 16.04 1.86 16.32 4.33 16.48 5.78 16.78 7.22 17.21 8.62 17.74 10.36 17.28 12.24 16 13.52L13.34 16.18C16.13 21.28 20.38 25.53 25.47 28.32L28.13 25.66C29.41 24.38 31.29 23.92 33.03 24.45 34.42 24.88 35.86 25.17 37.32 25.34 39.79 25.62 41.65 27.71 41.65 30.2L41.65 36.77C41.65 38.14 41.07 39.46 40.06 40.38 39.04 41.31 37.67 41.77 36.3 41.64 31.59 41.21 27.04 39.96 22.77 37.93 18.63 35.96 14.87 33.3 11.62 30.05 8.36 26.79 5.71 23.04 3.74 18.9 1.7 14.62 0.45 10.07 0.02 5.35 0.01 5.2 0 5.06 0 4.91L0 4.91ZM14.17 10.06C14.17 9.9 14.15 9.73 14.1 9.56 13.62 7.98 13.28 6.34 13.09 4.69 13 3.87 12.3 3.25 11.46 3.25L4.89 3.25C4.43 3.25 4 3.44 3.69 3.79 3.37 4.14 3.22 4.59 3.27 5.06 4.9 22.75 18.92 36.76 36.6 38.39 37.07 38.43 37.52 38.28 37.87 37.97 38.21 37.66 38.4 37.23 38.4 36.76L38.4 30.19C38.4 29.35 37.78 28.66 36.96 28.56 35.31 28.37 33.67 28.03 32.09 27.55 31.5 27.37 30.87 27.52 30.44 27.95L26.11 32.28 25.06 31.76C18.53 28.51 13.14 23.12 9.89 16.59L9.37 15.54 13.7 11.21C14.01 10.9 14.17 10.49 14.17 10.06L14.17 10.06Z" fill="#595959"/></svg>